<svg width="61" height="61" viewBox="0 0 61 61" fill="none" xmlns="http://www.w3.org/2000/svg">
<path d="M6.95573 60.75C5.1224 60.75 3.55295 60.0972 2.2474 58.7917C0.94184 57.4861 0.289062 55.9167 0.289062 54.0833V7.41667C0.289062 5.58333 0.94184 4.01389 2.2474 2.70833C3.55295 1.40278 5.1224 0.75 6.95573 0.75H33.6224V7.41667H6.95573V54.0833H53.6224V27.4167H60.2891V54.0833C60.2891 55.9167 59.6363 57.4861 58.3307 58.7917C57.0252 60.0972 55.4557 60.75 53.6224 60.75H6.95573ZM10.2891 47.4167H50.2891L37.7891 30.75L27.7891 44.0833L20.2891 34.0833L10.2891 47.4167ZM46.9557 20.75V14.0833H40.2891V7.41667H46.9557V0.75H53.6224V7.41667H60.2891V14.0833H53.6224V20.75H46.9557Z" fill="black"/>
</svg>
