<svg width="17" height="16" viewBox="0 0 17 16" fill="none" xmlns="http://www.w3.org/2000/svg">
<path d="M2.18793 16C1.69905 16 1.28053 15.8259 0.932378 15.4778C0.58423 15.1296 0.410156 14.7111 0.410156 14.2222V1.77778C0.410156 1.28889 0.58423 0.87037 0.932378 0.522222C1.28053 0.174074 1.69905 0 2.18793 0H9.29905V1.77778H2.18793V14.2222H14.6324V7.11111H16.4102V14.2222C16.4102 14.7111 16.2361 15.1296 15.8879 15.4778C15.5398 15.8259 15.1213 16 14.6324 16H2.18793ZM3.07682 12.4444H13.7435L10.4102 8L7.74349 11.5556L5.74349 8.88889L3.07682 12.4444ZM12.8546 5.33333V3.55556H11.0768V1.77778H12.8546V0H14.6324V1.77778H16.4102V3.55556H14.6324V5.33333H12.8546Z" fill="black"/>
</svg>
