<svg width="17" height="16" viewBox="0 0 17 16" fill="none" xmlns="http://www.w3.org/2000/svg">
<path d="M5.45016 11.8934L8.41016 8.9334L11.3702 11.8934L12.3036 10.96L9.34356 8L12.3036 5.04L11.3702 4.1066L8.41016 7.0666L5.45016 4.1066L4.51676 5.04L7.47676 8L4.51676 10.96L5.45016 11.8934ZM8.41016 16C7.31242 16 6.27689 15.79 5.30356 15.37C4.33022 14.95 3.48129 14.3778 2.75676 13.6534C2.03236 12.9289 1.46016 12.0799 1.04016 11.1066C0.620156 10.1333 0.410156 9.09773 0.410156 8C0.410156 6.89333 0.620156 5.85333 1.04016 4.88C1.46016 3.90667 2.03236 3.06 2.75676 2.34C3.48129 1.62 4.33022 1.05 5.30356 0.63C6.27689 0.21 7.31242 0 8.41016 0C9.51682 0 10.5568 0.21 11.5302 0.63C12.5035 1.05 13.3502 1.62 14.0702 2.34C14.7902 3.06 15.3602 3.90667 15.7802 4.88C16.2002 5.85333 16.4102 6.89333 16.4102 8C16.4102 9.09773 16.2002 10.1333 15.7802 11.1066C15.3602 12.0799 14.7902 12.9289 14.0702 13.6534C13.3502 14.3778 12.5035 14.95 11.5302 15.37C10.5568 15.79 9.51682 16 8.41016 16Z" fill="black"/>
</svg>
