<svg width="61" height="61" viewBox="0 0 61 61" fill="none" xmlns="http://www.w3.org/2000/svg">
<path d="M19.1891 45.3503L30.2891 34.2503L41.3891 45.3503L44.8893 41.85L33.7893 30.75L44.8893 19.65L41.3891 16.1498L30.2891 27.2498L19.1891 16.1498L15.6888 19.65L26.7888 30.75L15.6888 41.85L19.1891 45.3503ZM30.2891 60.75C26.1726 60.75 22.2893 59.9625 18.6393 58.3875C14.9893 56.8125 11.8058 54.6668 9.08881 51.9503C6.37231 49.2332 4.22656 46.0497 2.65156 42.3997C1.07656 38.7497 0.289062 34.8665 0.289062 30.75C0.289062 26.6 1.07656 22.7 2.65156 19.05C4.22656 15.4 6.37231 12.225 9.08881 9.525C11.8058 6.825 14.9893 4.6875 18.6393 3.1125C22.2893 1.5375 26.1726 0.75 30.2891 0.75C34.4391 0.75 38.3391 1.5375 41.9891 3.1125C45.6391 4.6875 48.8141 6.825 51.5141 9.525C54.2141 12.225 56.3516 15.4 57.9266 19.05C59.5016 22.7 60.2891 26.6 60.2891 30.75C60.2891 34.8665 59.5016 38.7497 57.9266 42.3997C56.3516 46.0497 54.2141 49.2332 51.5141 51.9503C48.8141 54.6668 45.6391 56.8125 41.9891 58.3875C38.3391 59.9625 34.4391 60.75 30.2891 60.75Z" fill="black"/>
</svg>
