<svg width="46" height="61" viewBox="0 0 46 61" fill="none" xmlns="http://www.w3.org/2000/svg">
<path d="M4.76214 60.75C3.45262 60.75 2.33143 60.2838 1.39857 59.3514C0.466191 58.4186 0 57.2974 0 55.9879V25.7979C0 24.4883 0.466191 23.3671 1.39857 22.4343C2.33143 21.5019 3.45262 21.0357 4.76214 21.0357H9.04786V14.5593C9.04786 10.7388 10.3948 7.48214 13.0886 4.78929C15.7824 2.09643 19.0402 0.75 22.8621 0.75C26.6841 0.75 29.9402 2.09643 32.6307 4.78929C35.3212 7.48214 36.6664 10.7388 36.6664 14.5593V21.0357H40.9521C42.2617 21.0357 43.3829 21.5019 44.3157 22.4343C45.2481 23.3671 45.7143 24.4883 45.7143 25.7979V55.9879C45.7143 57.2974 45.2481 58.4186 44.3157 59.3514C43.3829 60.2838 42.2617 60.75 40.9521 60.75H4.76214ZM4.76214 55.9879H40.9521V25.7979H4.76214V55.9879ZM22.865 46.4643C24.3993 46.4643 25.7102 45.9281 26.7979 44.8557C27.885 43.7833 28.4286 42.494 28.4286 40.9879C28.4286 39.5117 27.8821 38.1983 26.7893 37.0479C25.6969 35.8969 24.3836 35.3214 22.8493 35.3214C21.315 35.3214 20.004 35.8969 18.9164 37.0479C17.8293 38.1983 17.2857 39.5198 17.2857 41.0121C17.2857 42.5041 17.8321 43.7857 18.925 44.8571C20.0174 45.9286 21.3307 46.4643 22.865 46.4643ZM13.8093 21.0357H31.905V14.5593C31.905 12.0464 31.026 9.91024 29.2679 8.15071C27.5093 6.39167 25.3743 5.51214 22.8629 5.51214C20.351 5.51214 18.214 6.39167 16.4521 8.15071C14.6902 9.91024 13.8093 12.0464 13.8093 14.5593V21.0357Z" fill="black"/>
</svg>
