<svg width="13" height="16" viewBox="0 0 13 16" fill="none" xmlns="http://www.w3.org/2000/svg">
<path d="M1.2699 16C0.920698 16 0.621714 15.8757 0.372952 15.627C0.124318 15.3783 0 15.0793 0 14.7301V6.67943C0 6.33022 0.124318 6.03124 0.372952 5.78248C0.621714 5.53384 0.920698 5.40952 1.2699 5.40952H2.41276V3.68248C2.41276 2.66368 2.77194 1.79524 3.49029 1.07714C4.20864 0.359047 5.0774 0 6.09657 0C7.11575 0 7.98406 0.359047 8.70153 1.07714C9.41899 1.79524 9.77772 2.66368 9.77772 3.68248V5.40952H10.9206C11.2698 5.40952 11.5688 5.53384 11.8175 5.78248C12.0662 6.03124 12.1905 6.33022 12.1905 6.67943V14.7301C12.1905 15.0793 12.0662 15.3783 11.8175 15.627C11.5688 15.8757 11.2698 16 10.9206 16H1.2699ZM1.2699 14.7301H10.9206V6.67943H1.2699V14.7301ZM6.09733 12.1905C6.50648 12.1905 6.85606 12.0475 7.1461 11.7615C7.436 11.4756 7.58095 11.1317 7.58095 10.7301C7.58095 10.3364 7.43524 9.98622 7.14381 9.67943C6.85251 9.37251 6.50229 9.21905 6.09314 9.21905C5.684 9.21905 5.33441 9.37251 5.04438 9.67943C4.75448 9.98622 4.60952 10.3386 4.60952 10.7366C4.60952 11.1344 4.75524 11.4762 5.04667 11.7619C5.33797 12.0476 5.68819 12.1905 6.09733 12.1905ZM3.68248 5.40952H8.508V3.68248C8.508 3.01238 8.27359 2.44273 7.80476 1.97352C7.33581 1.50444 6.76648 1.2699 6.09676 1.2699C5.42692 1.2699 4.85708 1.50444 4.38724 1.97352C3.9174 2.44273 3.68248 3.01238 3.68248 3.68248V5.40952Z" fill="black"/>
</svg>
