<svg width="61" height="61" viewBox="0 0 61 61" fill="none" xmlns="http://www.w3.org/2000/svg">
<path d="M56.6115 60.7509L34.6917 38.8302C32.9467 40.271 30.9399 41.3986 28.6714 42.2129C26.4029 43.0272 24.0562 43.4344 21.6313 43.4344C15.6663 43.4344 10.618 41.3692 6.48642 37.2388C2.35485 33.1084 0.289062 28.0612 0.289062 22.0974C0.289062 16.1342 2.35427 11.0853 6.48468 6.95085C10.6151 2.81695 15.6622 0.75 21.626 0.75C27.5893 0.75 32.6381 2.81578 36.7726 6.94736C40.9065 11.0789 42.9734 16.1272 42.9734 22.0922C42.9734 24.5846 42.5552 26.9651 41.7188 29.2336C40.8818 31.5021 39.7653 33.4751 38.3693 35.1526L60.2891 57.0724L56.6115 60.7509ZM21.6313 38.2003C26.1281 38.2003 29.9369 36.6397 33.0575 33.5184C36.1787 30.3978 37.7393 26.5891 37.7393 22.0922C37.7393 17.5953 36.1787 13.7866 33.0575 10.6659C29.9369 7.54473 26.1281 5.98412 21.6313 5.98412C17.1344 5.98412 13.3256 7.54473 10.205 10.6659C7.08379 13.7866 5.52318 17.5953 5.52318 22.0922C5.52318 26.5891 7.08379 30.3978 10.205 33.5184C13.3256 36.6397 17.1344 38.2003 21.6313 38.2003Z" fill="black"/>
</svg>
