<svg width="17" height="16" viewBox="0 0 17 16" fill="none" xmlns="http://www.w3.org/2000/svg">
<path d="M15.4295 16.0002L9.58419 10.1547C9.11886 10.5389 8.58372 10.8396 7.97879 11.0568C7.37386 11.2739 6.74806 11.3825 6.10141 11.3825C4.51074 11.3825 3.16454 10.8318 2.06279 9.73034C0.961033 8.6289 0.410156 7.283 0.410156 5.69265C0.410156 4.10245 0.960877 2.75609 2.06232 1.65356C3.16376 0.551187 4.50966 0 6.10001 0C7.69021 0 9.03657 0.550876 10.1391 1.65263C11.2415 2.75438 11.7927 4.10059 11.7927 5.69125C11.7927 6.3559 11.6811 6.99069 11.4581 7.59563C11.2349 8.20056 10.9371 8.72669 10.5649 9.17403L16.4102 15.0193L15.4295 16.0002ZM6.10141 9.98674C7.30057 9.98674 8.31624 9.57058 9.14841 8.73825C9.98073 7.90608 10.3969 6.89041 10.3969 5.69125C10.3969 4.49209 9.98073 3.47642 9.14841 2.64425C8.31624 1.81193 7.30057 1.39577 6.10141 1.39577C4.90224 1.39577 3.88658 1.81193 3.05441 2.64425C2.22208 3.47642 1.80592 4.49209 1.80592 5.69125C1.80592 6.89041 2.22208 7.90608 3.05441 8.73825C3.88658 9.57058 4.90224 9.98674 6.10141 9.98674Z" fill="black"/>
</svg>
