<svg width="61" height="61" viewBox="0 0 61 61" fill="none" xmlns="http://www.w3.org/2000/svg">
<path d="M7.09514 60.75C5.3122 60.75 3.80308 60.1324 2.56778 58.8971C1.33249 57.6618 0.714844 56.1526 0.714844 54.3697V7.13029C0.714844 5.34735 1.33249 3.83824 2.56778 2.60294C3.80308 1.36765 5.3122 0.75 7.09514 0.75H30.7484V6.04412H7.09514C6.82337 6.04412 6.57455 6.15735 6.34867 6.38382C6.1222 6.6097 6.00896 6.85853 6.00896 7.13029V54.3697C6.00896 54.6415 6.1222 54.8903 6.34867 55.1162C6.57455 55.3426 6.82337 55.4559 7.09514 55.4559H30.7484V60.75H7.09514ZM45.6469 45.8179L41.9816 41.9894L50.5748 33.3971H20.4663V28.1029H50.5748L41.9816 19.5106L45.6469 15.6821L60.7148 30.75L45.6469 45.8179Z" fill="black"/>
</svg>
