<svg width="17" height="16" viewBox="0 0 17 16" fill="none" xmlns="http://www.w3.org/2000/svg">
<path d="M1.89282 16C1.41737 16 1.01494 15.8353 0.685524 15.5059C0.356112 15.1765 0.191406 14.774 0.191406 14.2986V1.70141C0.191406 1.22596 0.356112 0.823529 0.685524 0.494118C1.01494 0.164706 1.41737 0 1.89282 0H8.20035V1.41176H1.89282C1.82035 1.41176 1.75399 1.44196 1.69376 1.50235C1.63337 1.56259 1.60317 1.62894 1.60317 1.70141V14.2986C1.60317 14.3711 1.63337 14.4374 1.69376 14.4976C1.75399 14.558 1.82035 14.5882 1.89282 14.5882H8.20035V16H1.89282ZM12.1733 12.0181L11.1959 10.9972L13.4874 8.70588H5.45847V7.29412H13.4874L11.1959 5.00282L12.1733 3.98188L16.1914 8L12.1733 12.0181Z" fill="black"/>
</svg>
