<svg width="61" height="60" viewBox="0 0 61 60" fill="none" xmlns="http://www.w3.org/2000/svg">
<path d="M30.2891 29.0931C26.1641 29.0931 22.7369 27.7288 20.0075 25C17.2787 22.2706 15.9144 18.8434 15.9144 14.7184C15.9144 10.5934 17.2787 7.16625 20.0075 4.43688C22.7369 1.70813 26.1641 0.34375 30.2891 0.34375C34.4141 0.34375 37.8412 1.70813 40.5706 4.43688C43.2994 7.16625 44.6637 10.5934 44.6637 14.7184C44.6637 18.8434 43.2994 22.2706 40.5706 25C37.8412 27.7288 34.4141 29.0931 30.2891 29.0931ZM0.289062 59.1559V49.7809C0.289062 47.4891 0.867188 45.4837 2.02344 43.765C3.17969 42.0462 4.685 40.7391 6.53937 39.8434C10.6225 37.9478 14.6119 36.5259 18.5075 35.5778C22.4037 34.6297 26.3309 34.1556 30.2891 34.1556C34.2472 34.1556 38.1638 34.64 42.0387 35.6087C45.9137 36.5775 49.8912 37.9931 53.9712 39.8556C55.88 40.7569 57.41 42.0634 58.5612 43.7753C59.7131 45.4872 60.2891 47.4891 60.2891 49.7809V59.1559H0.289062ZM6.53937 52.9056H54.0387V49.7809C54.0387 48.8853 53.7837 48.0416 53.2738 47.2497C52.7631 46.4578 52.1225 45.8641 51.3519 45.4684C47.56 43.6141 43.9869 42.3069 40.6325 41.5469C37.2788 40.7863 33.8309 40.4059 30.2891 40.4059C26.7472 40.4059 23.2784 40.7863 19.8828 41.5469C16.4872 42.3069 12.9144 43.6141 9.16438 45.4684C8.39312 45.8641 7.76281 46.4578 7.27344 47.2497C6.78406 48.0416 6.53937 48.8853 6.53937 49.7809V52.9056ZM30.2891 22.8438C32.6016 22.8438 34.5338 22.0675 36.0856 20.515C37.6381 18.9631 38.4144 17.0309 38.4144 14.7184C38.4144 12.4059 37.6381 10.4738 36.0856 8.92188C34.5338 7.36938 32.6016 6.59313 30.2891 6.59313C27.9766 6.59313 26.0444 7.36938 24.4925 8.92188C22.94 10.4738 22.1637 12.4059 22.1637 14.7184C22.1637 17.0309 22.94 18.9631 24.4925 20.515C26.0444 22.0675 27.9766 22.8438 30.2891 22.8438Z" fill="black"/>
</svg>
