<svg width="17" height="16" viewBox="0 0 17 16" fill="none" xmlns="http://www.w3.org/2000/svg">
<path d="M8.41016 7.8247C7.31016 7.8247 6.39624 7.46087 5.66841 6.7332C4.94074 6.00537 4.57691 5.09145 4.57691 3.99145C4.57691 2.89145 4.94074 1.97754 5.66841 1.2497C6.39624 0.522037 7.31016 0.158203 8.41016 0.158203C9.51016 0.158203 10.4241 0.522037 11.1519 1.2497C11.8796 1.97754 12.2434 2.89145 12.2434 3.99145C12.2434 5.09145 11.8796 6.00537 11.1519 6.7332C10.4241 7.46087 9.51016 7.8247 8.41016 7.8247ZM0.410156 15.8415V13.3415C0.410156 12.7303 0.564323 12.1955 0.872656 11.7372C1.18099 11.2789 1.58241 10.9303 2.07691 10.6915C3.16574 10.186 4.22957 9.80679 5.26841 9.55395C6.30741 9.30112 7.35466 9.1747 8.41016 9.1747C9.46566 9.1747 10.5101 9.30387 11.5434 9.5622C12.5767 9.82054 13.6374 10.198 14.7254 10.6947C15.2344 10.935 15.6424 11.2835 15.9494 11.74C16.2566 12.1965 16.4102 12.7303 16.4102 13.3415V15.8415H0.410156ZM2.07691 14.1747H14.7434V13.3415C14.7434 13.1026 14.6754 12.8776 14.5394 12.6665C14.4032 12.4553 14.2324 12.297 14.0269 12.1915C13.0157 11.697 12.0629 11.3484 11.1684 11.1457C10.2741 10.9429 9.35466 10.8415 8.41016 10.8415C7.46566 10.8415 6.54066 10.9429 5.63516 11.1457C4.72966 11.3484 3.77691 11.697 2.77691 12.1915C2.57124 12.297 2.40316 12.4553 2.27266 12.6665C2.14216 12.8776 2.07691 13.1026 2.07691 13.3415V14.1747ZM8.41016 6.1582C9.02682 6.1582 9.54207 5.9512 9.95591 5.5372C10.3699 5.12337 10.5769 4.60812 10.5769 3.99145C10.5769 3.37479 10.3699 2.85954 9.95591 2.4457C9.54207 2.0317 9.02682 1.8247 8.41016 1.8247C7.79349 1.8247 7.27824 2.0317 6.86441 2.4457C6.45041 2.85954 6.24341 3.37479 6.24341 3.99145C6.24341 4.60812 6.45041 5.12337 6.86441 5.5372C7.27824 5.9512 7.79349 6.1582 8.41016 6.1582Z" fill="black"/>
</svg>
