<svg width="4" height="16" viewBox="0 0 4 16" fill="none" xmlns="http://www.w3.org/2000/svg">
<path d="M1.87466 16C1.47066 16 1.12557 15.8562 0.839407 15.5685C0.55324 15.2808 0.410156 14.935 0.410156 14.531C0.410156 14.127 0.55399 13.7819 0.841657 13.4957C1.12949 13.2097 1.47532 13.0668 1.87916 13.0668C2.28316 13.0668 2.62824 13.2106 2.91441 13.4983C3.20057 13.7859 3.34366 14.1318 3.34366 14.5358C3.34366 14.9398 3.19982 15.2848 2.91216 15.5708C2.62432 15.8569 2.27849 16 1.87466 16ZM1.87466 9.46675C1.47066 9.46675 1.12557 9.32292 0.839407 9.03525C0.55324 8.74742 0.410156 8.40158 0.410156 7.99775C0.410156 7.59375 0.55399 7.24867 0.841657 6.9625C1.12949 6.67633 1.47532 6.53325 1.87916 6.53325C2.28316 6.53325 2.62824 6.67708 2.91441 6.96475C3.20057 7.25258 3.34366 7.59842 3.34366 8.00225C3.34366 8.40625 3.19982 8.75133 2.91216 9.0375C2.62432 9.32367 2.27849 9.46675 1.87466 9.46675ZM1.87466 2.93325C1.47066 2.93325 1.12557 2.78942 0.839407 2.50175C0.55324 2.21408 0.410156 1.86825 0.410156 1.46425C0.410156 1.06025 0.55399 0.71525 0.841657 0.42925C1.12949 0.143083 1.47532 0 1.87916 0C2.28316 0 2.62824 0.143834 2.91441 0.4315C3.20057 0.719167 3.34366 1.065 3.34366 1.469C3.34366 1.873 3.19982 2.21808 2.91216 2.50425C2.62432 2.79025 2.27849 2.93325 1.87466 2.93325Z" fill="black"/>
</svg>
